<svg width="100" height="100" viewBox="0 0 100 100" fill="none" xmlns="http://www.w3.org/2000/svg">
  <path d="M50 15C30.67 15 15 28.43 15 45C15 54.45 20.79 62.67 29.5 68.21V85L46.33 74.45C47.54 74.48 48.76 74.5 50 74.5C69.33 74.5 85 61.07 85 44.5C85 27.93 69.33 15 50 15Z" fill="#20828A"/>

  <circle cx="50" cy="38" r="6" fill="white"/>
  <path d="M40 54C40 50.6863 42.6863 48 46 48H54C57.3137 48 60 50.6863 60 54V58H40V54Z" fill="white"/>

  <circle cx="36" cy="42" r="4.5" fill="#E0F2F1"/>
  <path d="M29 54C29 51.7909 30.7909 50 33 50H39V56H29V54Z" fill="#E0F2F1"/>

  <circle cx="64" cy="42" r="4.5" fill="#E0F2F1"/>
  <path d="M61 50H67C69.2091 50 71 51.7909 71 54V56H61V50Z" fill="#E0F2F1"/>
</svg>